# xmcd CD database file
#
# Track frame offsets:
#	150
#	15522
#	27072
#	46232
#	63815
#	86875
#	102605
#	125122
#	136085
#	152027
#
# Disc length: 2317 seconds
#
# Revision: 2
# Processed by: cddbd v1.4PL0 Copyright (c) Steve Scherf et al.
# Submitted via: CDex 1.40Release
#
DISCID=7c090b0a
DTITLE=B. B. King - Classics
DYEAR=1996
DGENRE=Blues
TTITLE0=How Blue You Can Get
TTITLE1=Paying The Cost To Be The Boss
TTITLE2=Sweet Sixteen
TTITLE3=Evil Child
TTITLE4=You've Done Lost You're Good Thing Now
TTITLE5=The Letter
TTITLE6=Everyday I Have The Blues
TTITLE7=Catfish Blues
TTITLE8=It's My Own Fault Baby
TTITLE9=The Thrill Is Gone
EXTD=YEAR: 1996 ID3G: 0
EXTT0=
EXTT1=
EXTT2=
EXTT3=
EXTT4=
EXTT5=
EXTT6=
EXTT7=
EXTT8=
EXTT9=
PLAYORDER=
